<?xml version="1.0" encoding="UTF-8" standalone="no"?>
<!DOCTYPE svg PUBLIC "-//W3C//DTD SVG 1.1//EN" "http://www.w3.org/Graphics/SVG/1.1/DTD/svg11.dtd">
<svg version="1.1" xmlns="http://www.w3.org/2000/svg" xmlns:xlink="http://www.w3.org/1999/xlink" preserveAspectRatio="xMidYMid meet" viewBox="0 0 640 640" width="1000" height="1000"><defs><path d="M401.37 528.34L523.32 410.84L320.32 321.95L401.37 528.34Z" id="c3c9llpUL4"></path><path d="M523.57 410.26L526.72 240.94L320.32 321.62L523.57 410.26Z" id="j2n12lnSuB"></path><path d="M232.01 525.19L401.33 528.34L320.65 321.95L232.01 525.19Z" id="eQCVIYfx2"></path><path d="M408.64 116.75L239.32 115.18L320 320L408.64 116.75Z" id="bcvPmasu4G"></path><path d="M526.72 240.91L408.99 116.75L320.32 321.95L526.72 240.91Z" id="b2KwYuPzp"></path><path d="M239.28 115.56L117.33 233.06L320.32 321.95L239.28 115.56Z" id="a3abZbMKp2"></path><path d="M117.08 233.64L113.93 402.96L320.32 322.27L117.08 233.64Z" id="c1ZJoNArj"></path><path d="M113.93 402.99L231.44 524.94L320.32 321.95L113.93 402.99Z" id="a1UUmTGzrA"></path><path d="M408.64 321.95C408.64 370.69 369.07 410.26 320.32 410.26C271.58 410.26 232.01 370.69 232.01 321.95C232.01 273.21 271.58 233.64 320.32 233.64C369.07 233.64 408.64 273.21 408.64 321.95Z" id="bYsr9mwGq"></path></defs><g><g><g><use xlink:href="#c3c9llpUL4" opacity="1" fill="#0a7214" fill-opacity="1"></use><g><use xlink:href="#c3c9llpUL4" opacity="1" fill-opacity="0" stroke="#000000" stroke-width="0" stroke-opacity="1"></use></g></g><g><use xlink:href="#j2n12lnSuB" opacity="1" fill="#0a7214" fill-opacity="1"></use><g><use xlink:href="#j2n12lnSuB" opacity="1" fill-opacity="0" stroke="#000000" stroke-width="0" stroke-opacity="1"></use></g></g><g><use xlink:href="#eQCVIYfx2" opacity="1" fill="#0a7214" fill-opacity="1"></use><g><use xlink:href="#eQCVIYfx2" opacity="1" fill-opacity="0" stroke="#000000" stroke-width="0" stroke-opacity="1"></use></g></g><g><use xlink:href="#bcvPmasu4G" opacity="1" fill="#0a7214" fill-opacity="1"></use><g><use xlink:href="#bcvPmasu4G" opacity="1" fill-opacity="0" stroke="#000000" stroke-width="0" stroke-opacity="1"></use></g></g><g><use xlink:href="#b2KwYuPzp" opacity="1" fill="#0a7214" fill-opacity="1"></use><g><use xlink:href="#b2KwYuPzp" opacity="1" fill-opacity="0" stroke="#000000" stroke-width="0" stroke-opacity="1"></use></g></g><g><use xlink:href="#a3abZbMKp2" opacity="1" fill="#0a7214" fill-opacity="1"></use><g><use xlink:href="#a3abZbMKp2" opacity="1" fill-opacity="0" stroke="#000000" stroke-width="0" stroke-opacity="1"></use></g></g><g><use xlink:href="#c1ZJoNArj" opacity="1" fill="#0a7214" fill-opacity="1"></use><g><use xlink:href="#c1ZJoNArj" opacity="1" fill-opacity="0" stroke="#000000" stroke-width="0" stroke-opacity="1"></use></g></g><g><use xlink:href="#a1UUmTGzrA" opacity="1" fill="#0a7214" fill-opacity="1"></use><g><use xlink:href="#a1UUmTGzrA" opacity="1" fill-opacity="0" stroke="#000000" stroke-width="0" stroke-opacity="1"></use></g></g><g><use xlink:href="#bYsr9mwGq" opacity="1" fill="#9404a0" fill-opacity="1"></use></g></g></g></svg>